<svg width="24" height="24" viewBox="0 0 24 24" fill="none" xmlns="http://www.w3.org/2000/svg">
<path d="M6.57129 2.75C7.31425 2.75 7.83235 2.75039 8.2373 2.7793C8.63514 2.80772 8.86691 2.86069 9.04297 2.9375C9.56314 3.16451 9.97812 3.58039 10.2051 4.10059C10.2818 4.27661 10.3349 4.50764 10.3633 4.90527C10.3922 5.31025 10.3926 5.82822 10.3926 6.57129C10.3926 7.31426 10.3922 7.83235 10.3633 8.2373C10.3349 8.63514 10.2819 8.86691 10.2051 9.04297C9.9781 9.56299 9.56299 9.9781 9.04297 10.2051C8.86691 10.2819 8.63514 10.3349 8.2373 10.3633C7.83235 10.3922 7.31426 10.3926 6.57129 10.3926C5.82822 10.3926 5.31025 10.3922 4.90527 10.3633C4.50764 10.3349 4.27661 10.2818 4.10059 10.2051C3.58039 9.97812 3.16451 9.56314 2.9375 9.04297C2.86069 8.86691 2.80772 8.63514 2.7793 8.2373C2.75039 7.83235 2.75 7.31425 2.75 6.57129C2.75 5.82823 2.75037 5.31025 2.7793 4.90527C2.8077 4.50772 2.86077 4.2766 2.9375 4.10059C3.16449 3.58032 3.58032 3.16449 4.10059 2.9375C4.2766 2.86077 4.50772 2.8077 4.90527 2.7793C5.31025 2.75037 5.82823 2.75 6.57129 2.75Z" stroke="#233326" stroke-width="1.5"/>
<path d="M6.57129 13.6071C7.31425 13.6071 7.83235 13.6075 8.2373 13.6364C8.63514 13.6649 8.86691 13.7178 9.04297 13.7946C9.56314 14.0217 9.97812 14.4375 10.2051 14.9577C10.2818 15.1338 10.3349 15.3648 10.3633 15.7624C10.3922 16.1674 10.3926 16.6854 10.3926 17.4284C10.3926 18.1714 10.3922 18.6895 10.3633 19.0945C10.3349 19.4923 10.2819 19.7241 10.2051 19.9001C9.9781 20.4201 9.56299 20.8353 9.04297 21.0622C8.86691 21.139 8.63514 21.192 8.2373 21.2204C7.83235 21.2493 7.31426 21.2497 6.57129 21.2497C5.82822 21.2497 5.31025 21.2494 4.90527 21.2204C4.50764 21.192 4.27661 21.139 4.10059 21.0622C3.58039 20.8353 3.16451 20.4203 2.9375 19.9001C2.86069 19.7241 2.80772 19.4923 2.7793 19.0945C2.75039 18.6895 2.75 18.1714 2.75 17.4284C2.75 16.6854 2.75037 16.1674 2.7793 15.7624C2.8077 15.3649 2.86077 15.1337 2.9375 14.9577C3.16449 14.4375 3.58032 14.0216 4.10059 13.7946C4.2766 13.7179 4.50772 13.6648 4.90527 13.6364C5.31025 13.6075 5.82823 13.6071 6.57129 13.6071Z" stroke="#233326" stroke-width="1.5"/>
<path d="M17.4285 2.75C18.1714 2.75 18.6895 2.75039 19.0945 2.7793C19.4923 2.80772 19.7241 2.86069 19.9001 2.9375C20.4203 3.16451 20.8353 3.58039 21.0623 4.10059C21.139 4.27661 21.1921 4.50764 21.2205 4.90527C21.2494 5.31025 21.2498 5.82822 21.2498 6.57129C21.2498 7.31426 21.2494 7.83235 21.2205 8.2373C21.192 8.63514 21.1391 8.86691 21.0623 9.04297C20.8353 9.56299 20.4202 9.9781 19.9001 10.2051C19.7241 10.2819 19.4923 10.3349 19.0945 10.3633C18.6895 10.3922 18.1714 10.3926 17.4285 10.3926C16.6854 10.3926 16.1674 10.3922 15.7625 10.3633C15.3648 10.3349 15.1338 10.2818 14.9578 10.2051C14.4376 9.97812 14.0217 9.56314 13.7947 9.04297C13.7179 8.86691 13.6649 8.63514 13.6365 8.2373C13.6076 7.83235 13.6072 7.31425 13.6072 6.57129C13.6072 5.82823 13.6076 5.31025 13.6365 4.90527C13.6649 4.50772 13.718 4.2766 13.7947 4.10059C14.0217 3.58032 14.4375 3.16449 14.9578 2.9375C15.1338 2.86077 15.3649 2.8077 15.7625 2.7793C16.1674 2.75037 16.6854 2.75 17.4285 2.75Z" stroke="#233326" stroke-width="1.5"/>
<path d="M17.4285 13.6071C18.1714 13.6071 18.6895 13.6075 19.0945 13.6364C19.4923 13.6649 19.7241 13.7178 19.9001 13.7946C20.4203 14.0217 20.8353 14.4375 21.0623 14.9577C21.139 15.1338 21.1921 15.3648 21.2205 15.7624C21.2494 16.1674 21.2498 16.6854 21.2498 17.4284C21.2498 18.1714 21.2494 18.6895 21.2205 19.0945C21.192 19.4923 21.1391 19.7241 21.0623 19.9001C20.8353 20.4201 20.4202 20.8353 19.9001 21.0622C19.7241 21.139 19.4923 21.192 19.0945 21.2204C18.6895 21.2493 18.1714 21.2497 17.4285 21.2497C16.6854 21.2497 16.1674 21.2494 15.7625 21.2204C15.3648 21.192 15.1338 21.139 14.9578 21.0622C14.4376 20.8353 14.0217 20.4203 13.7947 19.9001C13.7179 19.7241 13.6649 19.4923 13.6365 19.0945C13.6076 18.6895 13.6072 18.1714 13.6072 17.4284C13.6072 16.6854 13.6076 16.1674 13.6365 15.7624C13.6649 15.3649 13.718 15.1337 13.7947 14.9577C14.0217 14.4375 14.4375 14.0216 14.9578 13.7946C15.1338 13.7179 15.3649 13.6648 15.7625 13.6364C16.1674 13.6075 16.6854 13.6071 17.4285 13.6071Z" stroke="#233326" stroke-width="1.5"/>
</svg>
