<svg width="16" height="16" viewBox="0 0 16 16" fill="none" xmlns="http://www.w3.org/2000/svg">
<path d="M11 5.75337C10.7267 5.75337 10.5 5.5267 10.5 5.25337V4.33337C10.5 3.63337 10.2 2.95337 9.68 2.48004C9.15333 2.00004 8.47333 1.78004 7.75333 1.8467C6.55333 1.96004 5.5 3.1867 5.5 4.4667V5.11337C5.5 5.3867 5.27333 5.61337 5 5.61337C4.72667 5.61337 4.5 5.3867 4.5 5.11337V4.46004C4.5 2.6667 5.94667 1.01337 7.66 0.846703C8.66 0.75337 9.62 1.0667 10.3533 1.74004C11.08 2.40004 11.5 3.3467 11.5 4.33337V5.25337C11.5 5.5267 11.2733 5.75337 11 5.75337Z" fill="#B19276"/>
<path d="M9.99988 15.1667H5.99988C2.91988 15.1667 2.34655 13.7334 2.19988 12.34L1.69988 8.34671C1.62655 7.62671 1.59988 6.59337 2.29988 5.82004C2.89988 5.15337 3.89321 4.83337 5.33321 4.83337H10.6665C12.1132 4.83337 13.1065 5.16004 13.6999 5.82004C14.3932 6.59337 14.3732 7.62671 14.2999 8.33337L13.7999 12.34C13.6532 13.7334 13.0799 15.1667 9.99988 15.1667ZM5.33321 5.83337C4.20655 5.83337 3.43321 6.05337 3.03988 6.49337C2.71321 6.85337 2.60655 7.40671 2.69321 8.23337L3.19321 12.2267C3.30655 13.2934 3.59988 14.1734 5.99988 14.1734H9.99988C12.3999 14.1734 12.6932 13.3 12.8065 12.24L13.3065 8.23337C13.3932 7.42004 13.2865 6.86671 12.9599 6.50004C12.5665 6.05337 11.7932 5.83337 10.6665 5.83337H5.33321Z" fill="#B19276"/>
<path d="M10.2808 8.76668C9.90742 8.76668 9.60742 8.46668 9.60742 8.10002C9.60742 7.73335 9.90742 7.43335 10.2741 7.43335C10.6408 7.43335 10.9408 7.73335 10.9408 8.10002C10.9408 8.46668 10.6474 8.76668 10.2808 8.76668Z" fill="#B19276"/>
<path d="M5.61279 8.76668C5.23945 8.76668 4.93945 8.46668 4.93945 8.10002C4.93945 7.73335 5.23945 7.43335 5.60612 7.43335C5.97279 7.43335 6.27279 7.73335 6.27279 8.10002C6.27279 8.46668 5.97945 8.76668 5.61279 8.76668Z" fill="#B19276"/>
</svg>
