<svg width="16" height="16" viewBox="0 0 16 16" fill="none" xmlns="http://www.w3.org/2000/svg">
<path d="M8.00065 14.72C7.80065 14.72 7.60065 14.6733 7.43398 14.58C6.18732 13.9 3.99398 13.18 2.62065 13L2.42732 12.9733C1.55398 12.8666 0.833984 12.0466 0.833984 11.16V3.10663C0.833984 2.57996 1.04065 2.09996 1.42065 1.7533C1.80065 1.40663 2.29398 1.23996 2.81398 1.28663C4.28065 1.39996 6.49398 2.1333 7.74732 2.91996L7.90732 3.0133C7.95398 3.03996 8.05398 3.03996 8.09398 3.01996L8.20065 2.9533C9.45399 2.16663 11.6673 1.41996 13.1407 1.2933C13.154 1.2933 13.2073 1.2933 13.2207 1.2933C13.7073 1.24663 14.2073 1.41996 14.5807 1.76663C14.9607 2.1133 15.1673 2.5933 15.1673 3.11996V11.1666C15.1673 12.06 14.4473 12.8733 13.5673 12.98L13.3473 13.0066C11.974 13.1866 9.77398 13.9133 8.55398 14.5866C8.39398 14.68 8.20065 14.72 8.00065 14.72ZM2.65398 2.27996C2.44065 2.27996 2.24732 2.3533 2.09398 2.4933C1.92732 2.64663 1.83398 2.86663 1.83398 3.10663V11.16C1.83398 11.5533 2.17398 11.9333 2.55398 11.9866L2.75398 12.0133C4.25398 12.2133 6.55398 12.9666 7.88732 13.6933C7.94732 13.72 8.03398 13.7266 8.06732 13.7133C9.40065 12.9733 11.714 12.2133 13.2207 12.0133L13.4473 11.9866C13.8273 11.94 14.1673 11.5533 14.1673 11.16V3.1133C14.1673 2.86663 14.074 2.6533 13.9073 2.4933C13.734 2.33996 13.514 2.26663 13.2673 2.27996C13.254 2.27996 13.2007 2.27996 13.1873 2.27996C11.914 2.3933 9.86065 3.07996 8.74065 3.77996L8.63398 3.8533C8.26732 4.07996 7.74732 4.07996 7.39398 3.85996L7.23398 3.76663C6.09398 3.06663 4.04065 2.38663 2.73398 2.27996C2.70732 2.27996 2.68065 2.27996 2.65398 2.27996Z" fill="#223426"/>
<path d="M8 14.1602C7.72667 14.1602 7.5 13.9335 7.5 13.6602V3.66016C7.5 3.38682 7.72667 3.16016 8 3.16016C8.27333 3.16016 8.5 3.38682 8.5 3.66016V13.6602C8.5 13.9402 8.27333 14.1602 8 14.1602Z" fill="#223426"/>
<path d="M5.16602 6.16016H3.66602C3.39268 6.16016 3.16602 5.93349 3.16602 5.66016C3.16602 5.38682 3.39268 5.16016 3.66602 5.16016H5.16602C5.43935 5.16016 5.66602 5.38682 5.66602 5.66016C5.66602 5.93349 5.43935 6.16016 5.16602 6.16016Z" fill="#223426"/>
<path d="M5.66602 8.16016H3.66602C3.39268 8.16016 3.16602 7.93349 3.16602 7.66016C3.16602 7.38682 3.39268 7.16016 3.66602 7.16016H5.66602C5.93935 7.16016 6.16602 7.38682 6.16602 7.66016C6.16602 7.93349 5.93935 8.16016 5.66602 8.16016Z" fill="#223426"/>
</svg>
