<svg width="24" height="24" viewBox="0 0 24 24" fill="none" xmlns="http://www.w3.org/2000/svg">
<rect x="2.99609" y="2.99634" width="18.0075" height="18.0075" rx="3" stroke="#676F71" stroke-width="1.5" stroke-linecap="round" stroke-linejoin="round"/>
<path d="M21.0036 7.9985H2.99609" stroke="#676F71" stroke-width="1.5" stroke-linecap="round" stroke-linejoin="round"/>
<path d="M13.7483 11.45C13.7212 11.45 13.6992 11.4719 13.6992 11.499C13.6992 11.5261 13.7212 11.548 13.7483 11.548C13.7753 11.548 13.7973 11.5261 13.7973 11.499C13.7973 11.4719 13.7753 11.45 13.7483 11.45" stroke="#676F71" stroke-width="1.5" stroke-linecap="round" stroke-linejoin="round"/>
<path d="M10.2473 14.4512C10.2343 14.4512 10.222 14.4564 10.2129 14.4656C10.2039 14.4748 10.199 14.4873 10.1992 14.5002C10.1992 14.5201 10.2113 14.5381 10.2297 14.5456C10.2482 14.5531 10.2693 14.5487 10.2833 14.5345C10.2972 14.5203 10.3012 14.499 10.2933 14.4808C10.2854 14.4625 10.2672 14.4508 10.2473 14.4512" stroke="#676F71" stroke-width="1.5" stroke-linecap="round" stroke-linejoin="round"/>
<path d="M6.74632 14.4512C6.73306 14.4509 6.72027 14.4561 6.71098 14.4656C6.7017 14.4751 6.69675 14.488 6.6973 14.5012C6.69731 14.5211 6.70936 14.5391 6.7278 14.5466C6.74624 14.5541 6.7674 14.5497 6.78134 14.5355C6.79528 14.5213 6.79922 14.5 6.79132 14.4817C6.78341 14.4635 6.76524 14.4518 6.74532 14.4522" stroke="#676F71" stroke-width="1.5" stroke-linecap="round" stroke-linejoin="round"/>
<path d="M10.2473 17.4534C10.2343 17.4534 10.222 17.4586 10.2129 17.4678C10.2039 17.477 10.199 17.4895 10.1992 17.5024C10.1992 17.5223 10.2113 17.5403 10.2297 17.5478C10.2482 17.5553 10.2693 17.5509 10.2833 17.5367C10.2972 17.5225 10.3012 17.5012 10.2933 17.483C10.2854 17.4647 10.2672 17.453 10.2473 17.4534" stroke="#676F71" stroke-width="1.5" stroke-linecap="round" stroke-linejoin="round"/>
<path d="M6.7463 17.4534C6.73322 17.4531 6.72059 17.4582 6.71134 17.4674C6.70209 17.4767 6.69701 17.4893 6.69729 17.5024C6.69729 17.5223 6.70935 17.5403 6.72779 17.5478C6.74623 17.5553 6.76739 17.5509 6.78132 17.5367C6.79526 17.5225 6.79921 17.5012 6.7913 17.483C6.7834 17.4647 6.76522 17.453 6.74531 17.4534" stroke="#676F71" stroke-width="1.5" stroke-linecap="round" stroke-linejoin="round"/>
<path d="M17.2512 11.451C17.2383 11.451 17.2259 11.4561 17.2169 11.4654C17.2078 11.4746 17.2029 11.4871 17.2031 11.5C17.2031 11.5199 17.2152 11.5378 17.2336 11.5454C17.2521 11.5529 17.2732 11.5485 17.2872 11.5343C17.3011 11.52 17.3051 11.4988 17.2972 11.4805C17.2893 11.4622 17.2711 11.4505 17.2512 11.451" stroke="#676F71" stroke-width="1.5" stroke-linecap="round" stroke-linejoin="round"/>
<path d="M13.7502 11.4509C13.7304 11.4509 13.7125 11.4629 13.7049 11.4812C13.6973 11.4995 13.7015 11.5206 13.7155 11.5346C13.7296 11.5486 13.7507 11.5528 13.769 11.5453C13.7873 11.5377 13.7992 11.5198 13.7992 11.5C13.7992 11.4729 13.7773 11.4509 13.7502 11.4509" stroke="#676F71" stroke-width="1.5" stroke-linecap="round" stroke-linejoin="round"/>
<path d="M13.7483 14.4512C13.7212 14.4512 13.6992 14.4731 13.6992 14.5002C13.6992 14.5273 13.7212 14.5492 13.7483 14.5492C13.7753 14.5492 13.7973 14.5273 13.7973 14.5002C13.7973 14.4731 13.7753 14.4512 13.7483 14.4512" stroke="#676F71" stroke-width="1.5" stroke-linecap="round" stroke-linejoin="round"/>
<path d="M17.2512 14.4522C17.2383 14.4522 17.2259 14.4574 17.2169 14.4666C17.2078 14.4758 17.2029 14.4883 17.2031 14.5012C17.2031 14.5211 17.2152 14.539 17.2336 14.5466C17.2521 14.5541 17.2732 14.5497 17.2872 14.5355C17.3011 14.5213 17.3051 14.5 17.2972 14.4817C17.2893 14.4634 17.2711 14.4518 17.2512 14.4522" stroke="#676F71" stroke-width="1.5" stroke-linecap="round" stroke-linejoin="round"/>
<path d="M13.7502 14.4531C13.7304 14.4531 13.7125 14.4651 13.7049 14.4834C13.6973 14.5017 13.7015 14.5228 13.7155 14.5368C13.7296 14.5508 13.7507 14.555 13.769 14.5474C13.7873 14.5399 13.7992 14.522 13.7992 14.5022C13.7992 14.4751 13.7773 14.4531 13.7502 14.4531" stroke="#676F71" stroke-width="1.5" stroke-linecap="round" stroke-linejoin="round"/>
</svg>
