<svg width="16" height="16" viewBox="0 0 16 16" fill="none" xmlns="http://www.w3.org/2000/svg">
<path d="M2.61943 11.0867C2.49276 11.0867 2.36609 11.04 2.26609 10.94C2.07276 10.7467 2.07276 10.4267 2.26609 10.2334L10.2328 2.2667C10.4261 2.07337 10.7461 2.07337 10.9394 2.2667C11.1328 2.46004 11.1328 2.78004 10.9394 2.97337L2.97276 10.9467C2.87943 11.04 2.74609 11.0867 2.61943 11.0867Z" fill="#B6B6B9"/>
<path d="M7.40068 12.6866C7.27401 12.6866 7.14734 12.64 7.04734 12.54C6.85401 12.3466 6.85401 12.0266 7.04734 11.8333L7.84734 11.0333C8.04068 10.84 8.36068 10.84 8.55401 11.0333C8.74734 11.2266 8.74734 11.5466 8.55401 11.74L7.75401 12.54C7.66068 12.6333 7.53401 12.6866 7.40068 12.6866Z" fill="#B6B6B9"/>
<path d="M9.19365 10.8933C9.06698 10.8933 8.94031 10.8466 8.84031 10.7466C8.64698 10.5533 8.64698 10.2333 8.84031 10.04L10.4336 8.44664C10.627 8.2533 10.947 8.2533 11.1403 8.44664C11.3336 8.63997 11.3336 8.95997 11.1403 9.1533L9.54698 10.7466C9.45365 10.84 9.32031 10.8933 9.19365 10.8933Z" fill="#B6B6B9"/>
<path d="M7.39929 15.1667C6.74596 15.1667 6.09262 14.7667 5.29929 13.9734L2.02596 10.7C0.432625 9.10669 0.439292 8.08002 2.04596 6.47336L6.47262 2.04669C8.07929 0.440024 9.10596 0.433357 10.6993 2.02669L13.9726 5.30002C15.566 6.89336 15.5593 7.92002 13.9526 9.52669L9.52596 13.9534C8.71929 14.76 8.05929 15.1667 7.39929 15.1667ZM8.59929 1.83336C8.25262 1.83336 7.81262 2.12002 7.17929 2.75336L2.75262 7.18002C2.11929 7.81336 1.83263 8.25336 1.83263 8.59336C1.83263 8.94002 2.09929 9.36002 2.73262 9.99336L6.00596 13.2667C6.63929 13.9 7.05263 14.1667 7.39929 14.1667C7.39929 14.1667 7.39929 14.1667 7.40596 14.1667C7.75262 14.1667 8.18596 13.88 8.81929 13.2467L13.246 8.82002C13.8793 8.18669 14.166 7.74669 14.166 7.40669C14.166 7.06002 13.8993 6.64002 13.266 6.00669L9.99262 2.73336C9.36596 2.10002 8.94596 1.83336 8.59929 1.83336Z" fill="#B6B6B9"/>
<path d="M14.6673 15.1666H1.33398C1.06065 15.1666 0.833984 14.94 0.833984 14.6666C0.833984 14.3933 1.06065 14.1666 1.33398 14.1666H14.6673C14.9407 14.1666 15.1673 14.3933 15.1673 14.6666C15.1673 14.94 14.9407 15.1666 14.6673 15.1666Z" fill="#B6B6B9"/>
</svg>
