<svg width="16" height="16" viewBox="0 0 16 16" fill="none" xmlns="http://www.w3.org/2000/svg">
<path fill-rule="evenodd" clip-rule="evenodd" d="M5.40163 13.9685L4.09548 13.0328C4.03751 12.9912 3.95955 12.9912 3.90152 13.0326L2.59558 13.9657C2.54478 14.002 2.47796 14.0068 2.42244 13.9783C2.36693 13.9497 2.33203 13.8925 2.33203 13.8301V10.9006C2.33203 10.5324 2.63051 10.2339 2.9987 10.2339H4.9987C5.36689 10.2339 5.66536 10.5324 5.66536 10.9006V13.833C5.66537 13.8955 5.63043 13.9527 5.57486 13.9813C5.51929 14.0098 5.45242 14.0049 5.40163 13.9685Z" stroke="#676F71" stroke-linecap="round" stroke-linejoin="round"/>
<path d="M2 8C2 4.68629 4.68629 2 8 2C11.3137 2 14 4.68629 14 8C14 11.3137 11.3137 14 8 14" stroke="#676F71" stroke-linecap="round" stroke-linejoin="round"/>
<path d="M7.8125 5.32397V8.42464L10.2498 9.91064" stroke="#676F71" stroke-linecap="round" stroke-linejoin="round"/>
</svg>
