<svg width="80" height="80" viewBox="0 0 80 80" fill="none" xmlns="http://www.w3.org/2000/svg">
<path fill-rule="evenodd" clip-rule="evenodd" d="M56.6724 60.0083V40C56.6729 38.231 55.9704 36.5343 54.7195 35.2835C53.4687 34.0326 51.772 33.3301 50.003 33.3306H16.6558C14.8868 33.3301 13.1901 34.0326 11.9392 35.2835C10.6884 36.5343 9.98584 38.231 9.98633 40V60.0083C9.98584 61.7773 10.6884 63.474 11.9392 64.7249C13.1901 65.9758 14.8868 66.6783 16.6558 66.6778H50.003C53.6864 66.6778 56.6724 63.6917 56.6724 60.0083Z" stroke="#223426" stroke-width="1.5" stroke-linecap="round" stroke-linejoin="round"/>
<path d="M9.98633 46.933H56.6724" stroke="#223426" stroke-width="1.5" stroke-linecap="round" stroke-linejoin="round"/>
<path d="M20.6582 33.3307L24.6932 18.2577C25.151 16.5495 26.2698 15.0936 27.8026 14.2115C29.3354 13.3293 31.1563 13.0934 32.8633 13.5558L65.0767 22.1927C66.785 22.6505 68.2408 23.7693 69.123 25.3021C70.0051 26.8349 70.241 28.6557 69.7787 30.3628L64.6098 49.6708C63.6901 53.1457 60.1732 55.2588 56.6732 54.4395" stroke="#223426" stroke-width="1.5" stroke-linecap="round" stroke-linejoin="round"/>
</svg>
