<svg width="16" height="16" viewBox="0 0 16 16" fill="none" xmlns="http://www.w3.org/2000/svg">
<path d="M9.4155 6.58674C10.1962 7.36741 10.1962 8.63474 9.4155 9.41674C8.63483 10.1974 7.3675 10.1974 6.5855 9.41674C5.80483 8.63608 5.80483 7.36874 6.5855 6.58674C7.3675 5.80474 8.63417 5.80474 9.4155 6.58674" stroke="#676F71" stroke-linecap="round" stroke-linejoin="round"/>
<path fill-rule="evenodd" clip-rule="evenodd" d="M2 7.99992C2 7.56059 2.10133 7.12592 2.29733 6.72525V6.72525C3.30733 4.66059 5.53933 3.33325 8 3.33325C10.4607 3.33325 12.6927 4.66059 13.7027 6.72525V6.72525C13.8987 7.12592 14 7.56059 14 7.99992C14 8.43925 13.8987 8.87392 13.7027 9.27459V9.27459C12.6927 11.3393 10.4607 12.6666 8 12.6666C5.53933 12.6666 3.30733 11.3393 2.29733 9.27459V9.27459C2.10133 8.87392 2 8.43925 2 7.99992Z" stroke="#676F71" stroke-linecap="round" stroke-linejoin="round"/>
</svg>
