<svg width="16" height="16" viewBox="0 0 16 16" fill="none" xmlns="http://www.w3.org/2000/svg">
<path d="M11.332 15.1667H4.66536C1.72536 15.1667 0.832031 14.2734 0.832031 11.3334V4.66671C0.832031 1.72671 1.72536 0.833374 4.66536 0.833374H5.66536C6.83203 0.833374 7.1987 1.21337 7.66536 1.83337L8.66536 3.16671C8.88536 3.46004 8.9187 3.50004 9.33203 3.50004H11.332C14.272 3.50004 15.1654 4.39337 15.1654 7.33337V11.3334C15.1654 14.2734 14.272 15.1667 11.332 15.1667ZM4.66536 1.83337C2.2787 1.83337 1.83203 2.28671 1.83203 4.66671V11.3334C1.83203 13.7134 2.2787 14.1667 4.66536 14.1667H11.332C13.7187 14.1667 14.1654 13.7134 14.1654 11.3334V7.33337C14.1654 4.95337 13.7187 4.50004 11.332 4.50004H9.33203C8.4787 4.50004 8.1987 4.20671 7.86537 3.76671L6.86537 2.43337C6.5187 1.97337 6.41203 1.83337 5.66536 1.83337H4.66536Z" fill="#6D6D74"/>
<path d="M13.332 4.75337C13.0587 4.75337 12.832 4.52671 12.832 4.25337V3.33337C12.832 2.28004 12.3854 1.83337 11.332 1.83337H5.33203C5.0587 1.83337 4.83203 1.60671 4.83203 1.33337C4.83203 1.06004 5.0587 0.833374 5.33203 0.833374H11.332C12.9454 0.833374 13.832 1.72004 13.832 3.33337V4.25337C13.832 4.52671 13.6054 4.75337 13.332 4.75337Z" fill="#6D6D74"/>
</svg>
