<svg width="24" height="24" viewBox="0 0 24 24" fill="none" xmlns="http://www.w3.org/2000/svg">
<g clip-path="url(#clip0_599_5471)">
<path d="M17.8117 12C17.8126 13.3678 17.3308 14.6921 16.4511 15.7395C15.5714 16.787 14.3502 17.4903 13.0028 17.7257C11.6553 17.9611 10.2681 17.7134 9.08535 17.0262C7.90263 16.3391 7.00036 15.2566 6.53749 13.9694L3.21289 16.6291C4.24665 18.5942 5.90904 20.1563 7.93462 21.0659C9.96019 21.9755 12.2321 22.1802 14.3877 21.6473C16.5432 21.1144 18.458 19.8746 19.8264 18.1259C21.1948 16.3772 21.9377 14.2204 21.9367 12" fill="#00AC47"/>
<path d="M17.8117 12C17.811 12.9248 17.5893 13.8359 17.1651 14.6577C16.7409 15.4794 16.1265 16.1878 15.373 16.724L18.6598 19.3534C19.6905 18.4255 20.5147 17.2915 21.0792 16.0247C21.6437 14.758 21.9359 13.3868 21.9367 12" fill="#4285F4"/>
<path d="M6.1875 12C6.18894 11.3282 6.30764 10.6617 6.53827 10.0306L3.21367 7.37097C2.45774 8.79686 2.0625 10.3862 2.0625 12C2.0625 13.6139 2.45774 15.2032 3.21367 16.6291L6.53827 13.9695C6.30764 13.3384 6.18894 12.6719 6.1875 12Z" fill="#FFBA00"/>
<path d="M11.9992 6.18751C13.2291 6.18785 14.4268 6.58088 15.4177 7.30936L18.4627 4.46738C17.3324 3.4928 15.9965 2.78608 14.5549 2.39995C13.1132 2.01382 11.6029 1.95826 10.1368 2.23741C8.67066 2.51656 7.2865 3.12322 6.0876 4.01211C4.88869 4.901 3.90601 6.04916 3.21289 7.37093L6.53749 10.0306C6.94295 8.90661 7.6847 7.93477 8.66191 7.24717C9.63911 6.55957 10.8043 6.18959 11.9992 6.18751Z" fill="#EA4435"/>
<path d="M21.9375 11.25V12L20.25 14.625H12.375V10.5H21.1875C21.3864 10.5 21.5772 10.579 21.7178 10.7197C21.8585 10.8603 21.9375 11.0511 21.9375 11.25Z" fill="#4285F4"/>
</g>
<defs>
<clipPath id="clip0_599_5471">
<rect width="24" height="24" fill="white"/>
</clipPath>
</defs>
</svg>
