<svg width="24" height="24" viewBox="0 0 24 24" fill="none" xmlns="http://www.w3.org/2000/svg">
<path fill-rule="evenodd" clip-rule="evenodd" d="M11.9978 14.884L14.0038 15.938C14.3938 16.143 14.8508 15.812 14.7758 15.377L14.3928 13.144L16.0158 11.564C16.3318 11.256 16.1578 10.719 15.7208 10.656L13.4788 10.33L12.4758 8.297C12.2808 7.901 11.7168 7.901 11.5208 8.297L10.5188 10.33L8.27677 10.656C7.83977 10.719 7.66577 11.256 7.98177 11.564L9.60477 13.144L9.22177 15.377C9.14677 15.812 9.60377 16.143 9.99377 15.938L11.9998 14.884H11.9978V14.884Z" stroke="#676F71" stroke-width="1.5" stroke-linecap="round" stroke-linejoin="round"/>
<path d="M21.4984 12H20.3984" stroke="#676F71" stroke-width="1.5" stroke-linecap="round" stroke-linejoin="round"/>
<path d="M3.6 12H2.5" stroke="#676F71" stroke-width="1.5" stroke-linecap="round" stroke-linejoin="round"/>
<path d="M18.8586 5.13989L17.8086 6.18989" stroke="#676F71" stroke-width="1.5" stroke-linecap="round" stroke-linejoin="round"/>
<path d="M5.16016 18.8901L6.22016 17.8301" stroke="#676F71" stroke-width="1.5" stroke-linecap="round" stroke-linejoin="round"/>
<path d="M5.14062 5.15991L6.19062 6.21991" stroke="#676F71" stroke-width="1.5" stroke-linecap="round" stroke-linejoin="round"/>
<path d="M18.8881 18.8601L17.8281 17.8101" stroke="#676F71" stroke-width="1.5" stroke-linecap="round" stroke-linejoin="round"/>
<path d="M12 20.4399V21.4999" stroke="#676F71" stroke-width="1.5" stroke-linecap="round" stroke-linejoin="round"/>
<path d="M12 2.5V3.56" stroke="#676F71" stroke-width="1.5" stroke-linecap="round" stroke-linejoin="round"/>
</svg>
