<svg width="26" height="26" viewBox="0 0 26 26" fill="none" xmlns="http://www.w3.org/2000/svg">
<path fill-rule="evenodd" clip-rule="evenodd" d="M5.19036 17.8025L4.91859 15.7526L3.66347 14.1104C2.97285 13.2061 2.97285 11.9514 3.66347 11.047L4.91859 9.40675L5.19225 7.3569C5.34309 6.22858 6.23066 5.34094 7.35896 5.19002L9.40677 4.91822L11.0488 3.66301C11.9531 2.97236 13.2077 2.97236 14.112 3.66301L15.754 4.91822L17.8037 5.19191C18.9317 5.34345 19.819 6.23078 19.9704 7.35879L20.2422 9.40676L21.4973 11.047C22.1879 11.9514 22.1879 13.2061 21.4973 14.1105L20.2422 15.7526L19.9685 17.8025C19.8179 18.9312 18.9304 19.8195 17.8018 19.9712L15.754 20.2411L14.112 21.4982C13.2071 22.187 11.9537 22.187 11.0488 21.4982L9.40677 20.2411L7.35708 19.9674C6.22878 19.8179 5.34077 18.9306 5.19036 17.8025Z" stroke="#676F71" stroke-width="1.57248" stroke-linecap="round" stroke-linejoin="round"/>
<path fill-rule="evenodd" clip-rule="evenodd" d="M11.6398 8.47643C11.8164 8.11855 12.1809 7.89197 12.58 7.89197C12.979 7.89197 13.3435 8.11855 13.5201 8.47643L14.0534 9.55768C14.2061 9.86715 14.5013 10.0817 14.8428 10.1313L16.0359 10.3047C16.4307 10.3621 16.7586 10.6387 16.882 11.018C17.0053 11.3974 16.9026 11.8139 16.617 12.0925L15.7533 12.9349C15.5064 13.1758 15.3938 13.5227 15.4521 13.8626L15.6559 15.0506C15.7233 15.4439 15.5617 15.8413 15.2389 16.0759C14.9161 16.3104 14.4882 16.3414 14.135 16.1558L13.0676 15.5948C12.7623 15.4343 12.3976 15.4343 12.0922 15.5948L11.0248 16.1558C10.6716 16.3414 10.2437 16.3104 9.92095 16.0759C9.59819 15.8413 9.43654 15.4439 9.50396 15.0506L9.70775 13.8626C9.76606 13.5227 9.65342 13.1758 9.40652 12.9349L8.54287 12.0925C8.25731 11.8139 8.15462 11.3974 8.27795 11.018C8.40128 10.6386 8.72925 10.3621 9.12404 10.3047L10.3172 10.1313C10.6586 10.0817 10.9538 9.86715 11.1065 9.55768L11.6398 8.47643Z" stroke="#676F71" stroke-width="1.57248" stroke-linecap="round" stroke-linejoin="round"/>
</svg>
