<svg width="17" height="17" viewBox="0 0 17 17" fill="none" xmlns="http://www.w3.org/2000/svg">
<path d="M11.4509 7.95315C11.7437 7.95315 11.9811 8.19053 11.9811 8.48335C11.9811 8.77618 11.7437 9.01356 11.4509 9.01356L11.4509 8.48335L11.4509 7.95315ZM7.06788 9.01356C6.77505 9.01356 6.53767 8.77618 6.53767 8.48335C6.53767 8.19053 6.77505 7.95315 7.06788 7.95315V8.48335V9.01356ZM7.06788 6.45823H7.59808H7.06788ZM4.79154 5.33786L4.46812 4.91773V4.91773L4.79154 5.33786ZM4.79154 11.6288L4.46812 12.049L4.79154 11.6288ZM7.06788 10.5085H6.53767H7.06788ZM2.16083 9.60372L2.48425 9.18358L2.16083 9.60372ZM2.16083 7.36299L2.48425 7.78313L2.16083 7.36299ZM11.4509 8.48335L11.4509 9.01356L7.06788 9.01356V8.48335V7.95315L11.4509 7.95315L11.4509 8.48335ZM2.16083 9.60372L2.48425 9.18358L5.11496 11.2087L4.79154 11.6288L4.46812 12.049L1.83741 10.0239L2.16083 9.60372ZM7.06788 10.5085H6.53767V6.45823H7.06788H7.59808V10.5085H7.06788ZM4.79154 5.33786L5.11496 5.758L2.48425 7.78313L2.16083 7.36299L1.83741 6.94285L4.46812 4.91773L4.79154 5.33786ZM7.06788 6.45823H6.53767C6.53767 5.72492 5.69604 5.31069 5.11496 5.758L4.79154 5.33786L4.46812 4.91773C5.74649 3.93364 7.59808 4.84495 7.59808 6.45823H7.06788ZM4.79154 11.6288L5.11496 11.2087C5.69604 11.656 6.53767 11.2418 6.53767 10.5085H7.06788H7.59808C7.59808 12.1218 5.74649 13.0331 4.46812 12.049L4.79154 11.6288ZM2.16083 9.60372L1.83741 10.0239C0.82647 9.24564 0.82647 7.72107 1.83741 6.94285L2.16083 7.36299L2.48425 7.78313C2.02473 8.13686 2.02473 8.82985 2.48425 9.18358L2.16083 9.60372Z" fill="#7B7B7B"/>
<path d="M13.1501 8.4834H13.9984" stroke="#7B7B7B" stroke-width="1.06041" stroke-linecap="round"/>
</svg>
