<svg width="39" height="39" viewBox="0 0 39 39" fill="none" xmlns="http://www.w3.org/2000/svg">
<path d="M21.082 26.0488C21.082 27.0356 20.2821 27.8355 19.2954 27.8355C18.3087 27.8355 17.5088 27.0356 17.5088 26.0488L19.2954 26.0488L21.082 26.0488ZM17.5088 16.0794C17.5088 15.0927 18.3087 14.2928 19.2954 14.2928C20.2821 14.2928 21.082 15.0927 21.082 16.0794L19.2954 16.0794H17.5088ZM23.9017 16.0794V17.866V16.0794ZM26.45 10.9018L27.8657 9.81192H27.8657L26.45 10.9018ZM12.1408 10.9018L10.7251 9.81192L12.1408 10.9018ZM14.6891 16.0794L14.6891 14.2928H14.6891V16.0794ZM16.7471 4.91805L18.1628 6.00788L16.7471 4.91805ZM21.8437 4.91805L20.428 6.00788H20.428L21.8437 4.91805ZM19.2954 26.0488L17.5088 26.0488L17.5088 16.0794H19.2954L21.082 16.0794L21.082 26.0488L19.2954 26.0488ZM16.7471 4.91805L18.1628 6.00788L13.5566 11.9916L12.1408 10.9018L10.7251 9.81192L15.3313 3.82821L16.7471 4.91805ZM14.6891 16.0794V14.2928H23.9017V16.0794V17.866H14.6891V16.0794ZM26.45 10.9018L25.0343 11.9916L20.428 6.00788L21.8437 4.91805L23.2595 3.82821L27.8657 9.81192L26.45 10.9018ZM23.9017 16.0794L23.9017 14.2928C25.0878 14.2928 25.7578 12.9315 25.0343 11.9916L26.45 10.9018L27.8657 9.81192C30.398 13.1015 28.053 17.866 23.9017 17.866V16.0794ZM12.1408 10.9018L13.5566 11.9916C12.833 12.9315 13.503 14.2928 14.6891 14.2928L14.6891 16.0794V17.866C10.5378 17.866 8.19278 13.1015 10.7251 9.81192L12.1408 10.9018ZM16.7471 4.91805L15.3313 3.82821C17.3339 1.22683 21.2569 1.22683 23.2595 3.82821L21.8437 4.91805L20.428 6.00788C19.8558 5.26463 18.735 5.26463 18.1628 6.00788L16.7471 4.91805Z" fill="white"/>
<path d="M19.2959 29.9077V31.8373" stroke="white" stroke-width="3.57327" stroke-linecap="round"/>
</svg>
