<svg width="16" height="16" viewBox="0 0 16 16" fill="none" xmlns="http://www.w3.org/2000/svg">
<path d="M9.48122 14.4199C8.69456 14.4199 7.58122 13.8666 6.70122 11.2199L6.22122 9.77993L4.78122 9.29993C2.14122 8.41993 1.58789 7.30659 1.58789 6.51993C1.58789 5.73993 2.14122 4.61993 4.78122 3.73326L10.4412 1.84659C11.8546 1.37326 13.0346 1.51326 13.7612 2.23326C14.4879 2.95326 14.6279 4.13993 14.1546 5.55326L12.2679 11.2133C11.3812 13.8666 10.2679 14.4199 9.48122 14.4199ZM5.09456 4.68659C3.24122 5.30659 2.58122 6.03993 2.58122 6.51993C2.58122 6.99993 3.24122 7.73326 5.09456 8.34659L6.77456 8.90659C6.92122 8.95326 7.04122 9.07326 7.08789 9.21993L7.64789 10.8999C8.26122 12.7533 9.00122 13.4133 9.48122 13.4133C9.96122 13.4133 10.6946 12.7533 11.3146 10.8999L13.2012 5.23993C13.5412 4.21326 13.4812 3.37326 13.0479 2.93993C12.6146 2.50659 11.7746 2.45326 10.7546 2.79326L5.09456 4.68659Z" fill="#223426"/>
<path d="M6.74052 9.60004C6.61385 9.60004 6.48719 9.55337 6.38719 9.45337C6.19385 9.26004 6.19385 8.94004 6.38719 8.74671L8.77385 6.35337C8.96719 6.16004 9.28719 6.16004 9.48052 6.35337C9.67385 6.54671 9.67385 6.86671 9.48052 7.06004L7.09385 9.45337C7.00052 9.55337 6.86719 9.60004 6.74052 9.60004Z" fill="#223426"/>
</svg>
