<svg width="32" height="32" viewBox="0 0 32 32" fill="none" xmlns="http://www.w3.org/2000/svg">
<path d="M16 27.88H4" stroke="#3A2E29" stroke-width="1.5" stroke-linecap="round" stroke-linejoin="round"/>
<path d="M5.6276 14.3733V27.88" stroke="#3A2E29" stroke-width="1.5" stroke-linecap="round" stroke-linejoin="round"/>
<path fill-rule="evenodd" clip-rule="evenodd" d="M26.2655 14.3707C28.5295 14.3547 30.0055 12.1133 29.0241 10.1813L26.7361 5.67867C26.2161 4.652 25.1201 4 23.9175 4H8.0828C6.88013 4 5.78413 4.652 5.2628 5.67867L2.9748 10.1813C1.99346 12.1133 3.46946 14.3547 5.73346 14.3707C7.6228 14.3707 9.1548 13.08 9.1548 11.4867V11.4227C9.1548 13.0507 10.6868 14.3707 12.5761 14.3707C14.4681 14.3707 16.0001 13.0507 16.0001 11.4227C16.0001 13.0507 17.5321 14.3707 19.4215 14.3707C21.3108 14.3707 22.8428 13.0507 22.8428 11.4227V11.4867C22.8441 13.08 24.3761 14.3707 26.2655 14.3707V14.3707Z" stroke="#3A2E29" stroke-width="1.5" stroke-linecap="round" stroke-linejoin="round"/>
<path d="M26.667 17.3333L26.6937 14.3733" stroke="#3A2E29" stroke-width="1.5" stroke-linecap="round" stroke-linejoin="round"/>
<path d="M21.334 28H23.334C25.1753 28 26.6673 26.508 26.6673 24.6667V24.6667C26.6673 22.8254 25.1753 21.3334 23.334 21.3334H17.334" stroke="#3A2E29" stroke-width="1.5" stroke-linecap="round" stroke-linejoin="round"/>
<path d="M20.0007 24L17.334 21.3333L20.0007 18.6666" stroke="#3A2E29" stroke-width="1.5" stroke-linecap="round" stroke-linejoin="round"/>
</svg>
