<svg width="32" height="32" viewBox="0 0 32 32" fill="none" xmlns="http://www.w3.org/2000/svg">
<path d="M18.666 26.5467H27.9993" stroke="#223426" stroke-width="1.5" stroke-linecap="round" stroke-linejoin="round"/>
<path d="M26.3737 13.04V26.5467" stroke="#223426" stroke-width="1.5" stroke-linecap="round" stroke-linejoin="round"/>
<path fill-rule="evenodd" clip-rule="evenodd" d="M5.73542 13.0373C3.47142 13.0213 1.99542 10.78 2.97675 8.84796L5.26475 4.34529C5.78475 3.31863 6.88075 2.66663 8.08342 2.66663H23.9181C25.1207 2.66663 26.2167 3.31863 26.7381 4.34529L29.0261 8.84796C30.0074 10.78 28.5314 13.0213 26.2674 13.0373C24.3781 13.0373 22.8461 11.7466 22.8461 10.1533V10.0893C22.8461 11.7173 21.3141 13.0373 19.4247 13.0373C17.5327 13.0373 16.0007 11.7173 16.0007 10.0893C16.0007 11.7173 14.4687 13.0373 12.5794 13.0373C10.6901 13.0373 9.15808 11.7173 9.15808 10.0893V10.1533C9.15675 11.7466 7.62475 13.0373 5.73542 13.0373Z" stroke="#223426" stroke-width="1.5" stroke-linecap="round" stroke-linejoin="round"/>
<path d="M10.5354 22.4L8.20211 24.7334L6.80078 23.3334" stroke="#223426" stroke-width="1.5" stroke-linecap="round" stroke-linejoin="round"/>
<path fill-rule="evenodd" clip-rule="evenodd" d="M2.99797 24.3093L3.7953 25.352L3.9673 26.6493C4.0633 27.3693 4.62864 27.936 5.34864 28.032L6.64997 28.2053L7.6913 29.0013C8.2673 29.4413 9.0673 29.4427 9.64464 29.0013L10.6873 28.2053H10.686L11.9846 28.0333C12.7046 27.9373 13.2713 27.372 13.3673 26.652L13.5406 25.3507C13.5406 25.3507 13.9433 24.824 14.338 24.3093C14.778 23.7333 14.778 22.9333 14.338 22.3573L13.5406 21.3147L13.3686 20.0173C13.2726 19.2973 12.7073 18.7307 11.9873 18.6347L10.686 18.4613L9.64464 17.6653C9.06864 17.2253 8.26864 17.224 7.6913 17.6653L6.64864 18.4613H6.64997L5.3513 18.6333C4.6313 18.7293 4.06464 19.2947 3.96864 20.0147L3.7953 21.316C3.7953 21.316 3.39264 21.8427 2.99797 22.3573C2.55797 22.9333 2.55797 23.7333 2.99797 24.3093V24.3093Z" stroke="#223426" stroke-width="1.5" stroke-linecap="round" stroke-linejoin="round"/>
</svg>
