<svg width="32" height="32" viewBox="0 0 32 32" fill="none" xmlns="http://www.w3.org/2000/svg">
<path d="M18.666 26.551H28.0032" stroke="#5B242A" stroke-width="1.5" stroke-linecap="round" stroke-linejoin="round"/>
<path d="M26.3759 13.0387V26.551" stroke="#5B242A" stroke-width="1.5" stroke-linecap="round" stroke-linejoin="round"/>
<path d="M17.334 17.3339H21.3357V21.3355H18.6679" stroke="#5B242A" stroke-width="1.5" stroke-linecap="round" stroke-linejoin="round"/>
<path d="M19.4438 13.0444C17.5412 13.0444 15.9988 11.5019 15.9988 9.59929C15.9988 11.5023 14.4561 13.045 12.5531 13.045C10.65 13.045 9.10732 11.5023 9.10732 9.59929C9.10453 11.4999 7.5629 13.0392 5.66226 13.039V13.039C4.61841 13.039 3.64949 12.4968 3.10352 11.6071C2.55756 10.7174 2.51293 9.60799 2.98568 8.67732L5.30063 4.12075C5.7557 3.22523 6.67512 2.66113 7.67964 2.66113H24.3179C25.3224 2.66113 26.2418 3.22526 26.6969 4.12081L29.0118 8.67737C29.4846 9.60803 29.44 10.7174 28.894 11.6071C28.3481 12.4968 27.3792 13.039 26.3353 13.0391V13.0391V13.0444V13.0444C25.4216 13.0444 24.5453 12.6814 23.8993 12.0354C23.2532 11.3893 22.8902 10.513 22.8902 9.59929C22.8873 11.5004 21.3449 13.0397 19.4438 13.039" stroke="#5B242A" stroke-width="1.5" stroke-linecap="round" stroke-linejoin="round"/>
<path d="M8.00157 29.3377C5.05501 29.3377 2.66602 26.9487 2.66602 24.0022C2.66602 21.0556 5.05501 18.6666 8.00157 18.6666C10.9495 18.6666 13.3371 21.0556 13.3371 24.0022C13.3371 26.9487 10.9495 29.3377 8.00157 29.3377" stroke="#5B242A" stroke-width="1.5" stroke-linecap="round" stroke-linejoin="round"/>
<path d="M9.21407 22.7897L6.78906 25.2147" stroke="#5B242A" stroke-width="1.5" stroke-linecap="round" stroke-linejoin="round"/>
<path d="M6.78906 22.7897L9.21407 25.2147" stroke="#5B242A" stroke-width="1.5" stroke-linecap="round" stroke-linejoin="round"/>
</svg>
