<svg width="80" height="80" viewBox="0 0 80 80" fill="none" xmlns="http://www.w3.org/2000/svg">
<path fill-rule="evenodd" clip-rule="evenodd" d="M63.3327 56.6667H59.9993C58.1593 56.6667 56.666 55.1734 56.666 53.3334V36.6667C56.666 34.8267 58.1593 33.3334 59.9993 33.3334H63.3327C67.016 33.3334 69.9993 36.3167 69.9993 40V50C69.9993 53.6834 67.016 56.6667 63.3327 56.6667Z" stroke="#223426" stroke-width="1.5" stroke-linecap="round" stroke-linejoin="round"/>
<path fill-rule="evenodd" clip-rule="evenodd" d="M20 56.6667H16.6667C12.9833 56.6667 10 53.6834 10 50V40C10 36.3167 12.9833 33.3334 16.6667 33.3334H20C21.84 33.3334 23.3333 34.8267 23.3333 36.6667V53.3334C23.3333 55.1734 21.84 56.6667 20 56.6667Z" stroke="#223426" stroke-width="1.5" stroke-linecap="round" stroke-linejoin="round"/>
<path d="M61.6673 33.3333V31.6667C61.6673 19.7 51.9673 10 40.0007 10V10C28.034 10 18.334 19.7 18.334 31.6667V33.3333" stroke="#223426" stroke-width="1.5" stroke-linecap="round" stroke-linejoin="round"/>
<path fill-rule="evenodd" clip-rule="evenodd" d="M42.0833 70.8333H37.9167C35.6167 70.8333 33.75 68.9667 33.75 66.6667V66.6667C33.75 64.3667 35.6167 62.5 37.9167 62.5H42.0833C44.3833 62.5 46.25 64.3667 46.25 66.6667V66.6667C46.25 68.9667 44.3833 70.8333 42.0833 70.8333Z" stroke="#223426" stroke-width="1.5" stroke-linecap="round" stroke-linejoin="round"/>
<path d="M46.25 66.6666H53.3333C57.0167 66.6666 60 63.6833 60 60V56.6666" stroke="#223426" stroke-width="1.5" stroke-linecap="round" stroke-linejoin="round"/>
</svg>
