<svg width="80" height="80" viewBox="0 0 80 80" fill="none" xmlns="http://www.w3.org/2000/svg">
<path d="M53.3374 61.6758H27.2266" stroke="#223426" stroke-width="1.5" stroke-linecap="round" stroke-linejoin="round"/>
<path d="M63.3295 61.6757H70.0122C71.854 61.6757 73.347 60.1827 73.347 58.341V37.9504C73.347 37.1024 73.1851 36.2622 72.8701 35.4748L68.3525 24.1836C67.3395 21.6518 64.8873 19.9917 62.1603 19.9917H50.0039" stroke="#223426" stroke-width="1.5" stroke-linecap="round" stroke-linejoin="round"/>
<path d="M73.3467 43.3347H61.6752C60.7543 43.3347 60.0078 42.5882 60.0078 41.6674V29.9958H70.6789" stroke="#223426" stroke-width="1.5" stroke-linecap="round" stroke-linejoin="round"/>
<path d="M61.8633 58.1523C63.2939 59.5828 63.722 61.7342 62.9479 63.6034C62.1737 65.4726 60.3499 66.6914 58.3267 66.6915C56.3036 66.6917 54.4795 65.473 53.7052 63.6039C52.9309 61.7348 53.3587 59.5833 54.7893 58.1526L54.7896 58.1523C55.7276 57.2142 56.9999 56.6873 58.3264 56.6873C59.653 56.6873 60.9253 57.2142 61.8633 58.1523V58.1523" stroke="#223426" stroke-width="1.5" stroke-linecap="round" stroke-linejoin="round"/>
<path d="M25.1816 58.1522C26.6123 59.5828 27.0404 61.7342 26.2662 63.6034C25.4921 65.4726 23.6682 66.6914 21.6451 66.6915C19.6219 66.6916 17.7979 65.473 17.0236 63.6039C16.2493 61.7348 16.6771 59.5833 18.1076 58.1526L18.1086 58.1516C19.0466 57.2136 20.3188 56.6868 21.6452 56.6869C22.9717 56.687 24.2438 57.2141 25.1816 58.1522V58.1522" stroke="#223426" stroke-width="1.5" stroke-linecap="round" stroke-linejoin="round"/>
<path d="M16.6565 61.6757H9.98707C8.14535 61.6757 6.65234 60.1827 6.65234 58.341V16.657C6.65234 14.8153 8.14535 13.3223 9.98707 13.3223H46.669C48.5107 13.3223 50.0037 14.8153 50.0037 16.657V46.6695" stroke="#223426" stroke-width="1.5" stroke-linecap="round" stroke-linejoin="round"/>
<path d="M50.0037 46.6696H6.65234" stroke="#223426" stroke-width="1.5" stroke-linecap="round" stroke-linejoin="round"/>
</svg>
