<svg width="17" height="17" viewBox="0 0 17 17" fill="none" xmlns="http://www.w3.org/2000/svg">
<path d="M6.19895 3.26149C7.1924 1.47934 7.68912 0.588257 8.43176 0.588257C9.1744 0.588257 9.67112 1.47934 10.6646 3.26149L10.9216 3.72256C11.2039 4.22899 11.3451 4.48221 11.5651 4.64928C11.7852 4.81636 12.0593 4.87838 12.6075 5.00241L13.1066 5.11534C15.0358 5.55183 16.0004 5.77008 16.2299 6.50805C16.4594 7.24602 15.8018 8.01498 14.4866 9.5529L14.1463 9.95078C13.7726 10.3878 13.5857 10.6063 13.5017 10.8767C13.4176 11.147 13.4459 11.4385 13.5024 12.0216L13.5538 12.5525C13.7526 14.6044 13.8521 15.6304 13.2513 16.0865C12.6504 16.5426 11.7473 16.1267 9.94104 15.2951L9.47373 15.0799C8.96045 14.8436 8.7038 14.7254 8.43176 14.7254C8.15972 14.7254 7.90308 14.8436 7.38979 15.0799L6.92249 15.2951C5.11621 16.1267 4.21308 16.5426 3.61227 16.0865C3.01146 15.6304 3.11088 14.6044 3.30972 12.5525L3.36116 12.0216C3.41766 11.4385 3.44591 11.147 3.36185 10.8767C3.27778 10.6063 3.09092 10.3878 2.71719 9.95079L2.37693 9.55291C1.06176 8.01498 0.404172 7.24602 0.633659 6.50805C0.863147 5.77008 1.82773 5.55183 3.75689 5.11534L4.25599 5.00241C4.80419 4.87838 5.0783 4.81636 5.29838 4.64928C5.51847 4.48221 5.65962 4.22899 5.94193 3.72256L6.19895 3.26149Z" stroke="#EC8514" stroke-width="1.17647"/>
</svg>
